HIERARCHY
ROOT Hips
{
	OFFSET -14.64140 90.27770 -84.91600
	CHANNELS 6 Xposition Yposition Zposition Zrotation Xrotation Yrotation
	JOINT Spine
	{
		OFFSET 0.00000 13.20850 -1.60436
		CHANNELS 3 Zrotation Xrotation Yrotation
		JOINT Spine1
		{
			OFFSET 0.00000 8.61716 0.00000
			CHANNELS 3 Zrotation Xrotation Yrotation
			JOINT Spine2
			{
				OFFSET 0.00000 8.61717 0.00000
				CHANNELS 3 Zrotation Xrotation Yrotation
				JOINT Spine3
				{
					OFFSET 0.00000 8.61717 0.00000
					CHANNELS 3 Zrotation Xrotation Yrotation
					JOINT Neck
					{
						OFFSET 0.00000 11.07920 1.10792
						CHANNELS 3 Zrotation Xrotation Yrotation
						JOINT Neck1
						{
							OFFSET 0.00000 7.08032 0.00000
							CHANNELS 3 Zrotation Xrotation Yrotation
							JOINT Head
							{
								OFFSET 0.00000 7.08031 0.00000
								CHANNELS 3 Zrotation Xrotation Yrotation
								End site
								{
									OFFSET 0.00000 0.00000 0.00000
								}
							}
						}
					}
					JOINT RightShoulder
					{
						OFFSET -0.01000 7.91373 5.19711
						CHANNELS 3 Zrotation Xrotation Yrotation
						JOINT RightArm
						{
							OFFSET -18.41580 0.00000 0.00000
							CHANNELS 3 Zrotation Xrotation Yrotation
							JOINT RightForeArm
							{
								OFFSET -29.11090 0.00000 0.00000
								CHANNELS 3 Zrotation Xrotation Yrotation
								JOINT RightHand
								{
									OFFSET -24.65040 0.00000 0.00000
									CHANNELS 3 Zrotation Xrotation Yrotation
									JOINT RightHandThumb1
									{
										OFFSET -5.35114 -0.85590 3.97906
										CHANNELS 3 Zrotation Xrotation Yrotation
										JOINT RightHandThumb2
										{
											OFFSET -4.52789 0.00000 0.00000
											CHANNELS 3 Zrotation Xrotation Yrotation
											JOINT RightHandThumb3
											{
												OFFSET -2.46976 0.00000 0.00000
												CHANNELS 3 Zrotation Xrotation Yrotation
												End site
												{
													OFFSET 0.00000 0.00000 0.00000
												}
											}
										}
									}
									JOINT RightHandIndex1
									{
										OFFSET -14.26970 0.00000 2.88139
										CHANNELS 3 Zrotation Xrotation Yrotation
										JOINT RightHandIndex2
										{
											OFFSET -5.48836 0.00000 0.00000
											CHANNELS 3 Zrotation Xrotation Yrotation
											JOINT RightHandIndex3
											{
												OFFSET -3.01859 0.00000 0.00000
												CHANNELS 3 Zrotation Xrotation Yrotation
												End site
												{
													OFFSET 0.00000 0.00000 0.00000
												}
											}
										}
									}
									JOINT RightHandMiddle1
									{
										OFFSET -14.26970 0.00000 -0.09147
										CHANNELS 3 Zrotation Xrotation Yrotation
										JOINT RightHandMiddle2
										{
											OFFSET -6.17441 0.00000 0.00000
											CHANNELS 3 Zrotation Xrotation Yrotation
											JOINT RightHandMiddle3
											{
												OFFSET -3.56743 0.00000 0.00000
												CHANNELS 3 Zrotation Xrotation Yrotation
												End site
												{
													OFFSET 0.00000 0.00000 0.00000
												}
											}
										}
									}
									JOINT RightHandRing1
									{
										OFFSET -12.69180 0.00000 -3.06433
										CHANNELS 3 Zrotation Xrotation Yrotation
										JOINT RightHandRing2
										{
											OFFSET -5.62556 0.00000 0.00000
											CHANNELS 3 Zrotation Xrotation Yrotation
											JOINT RightHandRing3
											{
												OFFSET -3.56744 0.00000 0.00000
												CHANNELS 3 Zrotation Xrotation Yrotation
												End site
												{
													OFFSET 0.00000 0.00000 0.00000
												}
											}
										}
									}
									JOINT RightHandPinky1
									{
										OFFSET -11.11390 0.00000 -6.03719
										CHANNELS 3 Zrotation Xrotation Yrotation
										JOINT RightHandPinky2
										{
											OFFSET -4.52789 0.00000 0.00000
											CHANNELS 3 Zrotation Xrotation Yrotation
											JOINT RightHandPinky3
											{
												OFFSET -2.46976 0.00000 0.00000
												CHANNELS 3 Zrotation Xrotation Yrotation
												End site
												{
													OFFSET 0.00000 0.00000 0.00000
												}
											}
										}
									}
								}
							}
						}
					}
					JOINT LeftShoulder
					{
						OFFSET 0.01000 7.91373 5.19711
						CHANNELS 3 Zrotation Xrotation Yrotation
						JOINT LeftArm
						{
							OFFSET 18.41580 0.00000 0.00000
							CHANNELS 3 Zrotation Xrotation Yrotation
							JOINT LeftForeArm
							{
								OFFSET 29.11090 0.00000 0.00000
								CHANNELS 3 Zrotation Xrotation Yrotation
								JOINT LeftHand
								{
									OFFSET 24.65040 0.00000 0.00000
									CHANNELS 3 Zrotation Xrotation Yrotation
									JOINT LeftHandThumb1
									{
										OFFSET 5.35114 -0.85590 3.97906
										CHANNELS 3 Zrotation Xrotation Yrotation
										JOINT LeftHandThumb2
										{
											OFFSET 4.52789 0.00000 0.00000
											CHANNELS 3 Zrotation Xrotation Yrotation
											JOINT LeftHandThumb3
											{
												OFFSET 2.46977 0.00000 0.00000
												CHANNELS 3 Zrotation Xrotation Yrotation
												End site
												{
													OFFSET 0.00000 0.00000 0.00000
												}
											}
										}
									}
									JOINT LeftHandIndex1
									{
										OFFSET 14.26970 0.00000 2.88139
										CHANNELS 3 Zrotation Xrotation Yrotation
										JOINT LeftHandIndex2
										{
											OFFSET 5.48836 0.00000 0.00000
											CHANNELS 3 Zrotation Xrotation Yrotation
											JOINT LeftHandIndex3
											{
												OFFSET 3.01859 0.00000 0.00000
												CHANNELS 3 Zrotation Xrotation Yrotation
												End site
												{
													OFFSET 0.00000 0.00000 0.00000
												}
											}
										}
									}
									JOINT LeftHandMiddle1
									{
										OFFSET 14.26970 0.00000 -0.09147
										CHANNELS 3 Zrotation Xrotation Yrotation
										JOINT LeftHandMiddle2
										{
											OFFSET 6.17440 0.00000 0.00000
											CHANNELS 3 Zrotation Xrotation Yrotation
											JOINT LeftHandMiddle3
											{
												OFFSET 3.56744 0.00000 0.00000
												CHANNELS 3 Zrotation Xrotation Yrotation
												End site
												{
													OFFSET 0.00000 0.00000 0.00000
												}
											}
										}
									}
									JOINT LeftHandRing1
									{
										OFFSET 12.69180 0.00000 -3.06433
										CHANNELS 3 Zrotation Xrotation Yrotation
										JOINT LeftHandRing2
										{
											OFFSET 5.62556 0.00000 0.00000
											CHANNELS 3 Zrotation Xrotation Yrotation
											JOINT LeftHandRing3
											{
												OFFSET 3.56744 0.00000 0.00000
												CHANNELS 3 Zrotation Xrotation Yrotation
												End site
												{
													OFFSET 0.00000 0.00000 0.00000
												}
											}
										}
									}
									JOINT LeftHandPinky1
									{
										OFFSET 11.11390 0.00000 -6.03719
										CHANNELS 3 Zrotation Xrotation Yrotation
										JOINT LeftHandPinky2
										{
											OFFSET 4.52789 0.00000 0.00000
											CHANNELS 3 Zrotation Xrotation Yrotation
											JOINT LeftHandPinky3
											{
												OFFSET 2.46976 0.00000 0.00000
												CHANNELS 3 Zrotation Xrotation Yrotation
												End site
												{
													OFFSET 0.00000 0.00000 0.00000
												}
											}
										}
									}
								}
							}
						}
					}
					JOINT pCube4
					{
						OFFSET 0.00000 10.91090 1.10792
						CHANNELS 3 Zrotation Xrotation Yrotation
						End site
						{
							OFFSET 0.00000 0.00000 0.00000
						}
					}
				}
			}
		}
	}
	JOINT RightUpLeg
	{
		OFFSET -9.98441 0.00000 0.00000
		CHANNELS 3 Zrotation Xrotation Yrotation
		JOINT RightLeg
		{
			OFFSET 0.00000 -42.11790 0.00000
			CHANNELS 3 Zrotation Xrotation Yrotation
			JOINT RightFoot
			{
				OFFSET 0.00000 -45.00020 -0.00001
				CHANNELS 3 Zrotation Xrotation Yrotation
				JOINT RightForeFoot
				{
					OFFSET 0.00000 -3.74820 0.00000
					CHANNELS 3 Zrotation Xrotation Yrotation
					JOINT RightToeBase
					{
						OFFSET 0.00000 0.06325 14.43120
						CHANNELS 3 Zrotation Xrotation Yrotation
						End site
						{
							OFFSET 0.00000 0.00000 0.00000
						}
					}
				}
			}
		}
	}
	JOINT LeftUpLeg
	{
		OFFSET 9.98441 0.00000 0.00000
		CHANNELS 3 Zrotation Xrotation Yrotation
		JOINT LeftLeg
		{
			OFFSET 0.00000 -42.11800 0.00000
			CHANNELS 3 Zrotation Xrotation Yrotation
			JOINT LeftFoot
			{
				OFFSET 0.00000 -45.00070 0.00000
				CHANNELS 3 Zrotation Xrotation Yrotation
				JOINT LeftForeFoot
				{
					OFFSET 0.00000 -3.74824 0.00000
					CHANNELS 3 Zrotation Xrotation Yrotation
					JOINT LeftToeBase
					{
						OFFSET 0.00000 0.06325 14.43110
						CHANNELS 3 Zrotation Xrotation Yrotation
						End site
						{
							OFFSET 0.00000 0.00000 0.00000
						}
					}
				}
			}
		}
	}
}
MOTION
Frames: 4
Frame Time: 0.050000
-0.025098817164473864 -0.031827629821803385 0.0022025588660510307 -0.0282556454069335 -0.026074265995974066 -0.0073235697599121 1.976868254711369 4.539400830681802 -1.417368615480924 -0.6562323485169355 3.8973085338366618 0.33689689590539246 -0.7380546407453503 -1.2887034807155726 1.4362597583329144 -0.664978760847108 -0.19891216758297203 -0.2452309100762904 0.003936596174064699 13.92474039177565 -1.2181208086340927 0.0955865906928516 -0.6276266035832672 -4.608296864869311 0.6704691824425317 -16.714656002298398 -0.3402760797531716 -7.432825933057617 2.7739673489262637 -14.895414982131795 74.5568927601654 11.019855807523248 19.655777207695525 6.900357683706297 -3.948527305723637 86.78187578030523 21.637937224033642 -0.5667095261616085 -4.630352891884582 4.509613942242181 -0.1567152680569774 -1.612800775764243 -0.003961385753946822 -0.025985984306678974 -56.255286333406644 0.030559415997760978 0.005260169471774791 -56.27912964175373 -38.74956631298357 0.0031393088501391084 -0.026309911763659467 -0.046990847058110526 -0.04306235640668304 0.021751198508687307 -0.03999669223089346 -0.04085461007213532 -0.006929582078736424 -36.6742734244606 0.015386011607713796 0.03851113685949696 0.021419455708135072 0.03391627643991014 -0.0402899623479852 -0.0185881156335806 0.008457375817838765 0.03564238194568697 -19.758161241584663 -0.013440992145486184 0.011497477641983295 0.028699481613247882 0.047666147737888444 0.047069553242796804 -0.033683636765719976 -0.04909272162066435 0.00586496965640874 24.05797197223833 0.04185476013546961 -0.008214486604289818 28.908945331006993 -0.044020938300252624 -0.027803393517130345 28.849474650836047 0.014470590717534664 0.015529084437363705 7.44916072218452 1.9567531828861318 13.630559498639899 -72.25867499732448 21.53686314897059 -14.918092434834998 -7.4484402173626 1.7998647336402367 -72.0676969379903 -20.705401011297777 4.078640502241756 -3.154380137120668 -0.4779686120454812 0.08901117665447603 -8.151809576099007 0.03155258119301418 -0.03302815540533987 44.58199544777196 0.010277830391084998 0.026839865839115323 44.531032639497965 12.43150066412442 -0.026413377651891043 0.019304291335797707 0.0185104359869173 -0.04147986415750077 0.013572503112132485 0.028880109015384504 0.028356277423848854 -0.012749968364280006 11.084379177831979 -0.04393166351948413 -0.007188795190475067 0.0286945714081199 0.0027000419348577427 0.014744265415910597 0.048230243468620024 0.012049145511475016 -0.00042773136012638123 4.731855564759625 -0.04740089597786958 -0.04450500514553733 0.0015811827352478136 -0.009468631686163992 0.025004987529094823 0.002498927706500334 0.013781902785251012 0.042906444882573405 -5.5762955827209995 0.03203029305486825 -0.02712742353365291 -6.7407119133822695 0.0027685221722068745 -0.024943859305447683 -6.690915323808809 0.049990468170416955 -0.016950308499110264 0.03365260353985146 0.04096828519274646 -0.041838091020671035 8.022418606748102 3.4583065298580373 -19.170328871532103 -0.011018390425339862 10.415907957642162 0.012295110757801696 -5.610336052786365 -15.629743988985329 3.222169145049696 -0.03586312204119036 -0.017500127528017544 0.010022440788134872 0.008169898059958061 4.668140003956641 -0.0005059315916279848 12.427531053853228 -8.203421380820224 6.880595633702171 0.0012567174128774333 46.333413096949684 0.011793648311845041 -4.323259600667312 -14.732764938928963 -3.872557210638195 0.01632077919787356 -0.03240341255317278 0.0017295418201688478 -0.012869517722805639 -10.703027631429723 0.032440417803216826 
-0.043038520493687914 -0.04614936186109474 -0.011498457057855977 0.01335450680411065 -0.01006021891877254 0.04166250658562138 2.019999140762975 4.618792562336987 -1.4780974839283603 -0.5937681610558183 3.8631856979458044 0.353571554563407 -0.6868649186592601 -1.280057803265282 1.4630034213094107 -0.5637055072345322 -0.1984211094920857 -0.2850284800429465 0.0285832827373322 13.852067607241025 -1.4056091329678708 0.11057867134577411 -0.5624735583192056 -4.9740158326762405 0.690949261655758 -16.609716264869466 -0.4188401143182443 -6.958016806727603 2.689494966984232 -14.974653840734655 73.8768248538004 12.209385925758534 18.092831401576262 5.92650367527497 -3.902533979808133 87.55901929666813 21.68738658098969 -0.5341306439885954 -4.777060452037893 4.539036633174908 -0.15022915177020482 -1.555678599142563 0.0038374758073701216 -0.019159873319234164 -56.224299154006225 -0.043167149599521525 0.01926433784790296 -56.239977061952935 -38.74937256578861 0.035815629615638604 0.004837524560467762 0.010592408967523911 -0.03621016313223561 0.021687733240770515 -0.04377069719933549 0.01778903400669059 -0.014475445596091083 -36.69535549752896 0.008957696080578987 -0.04389206704157245 -0.004620623108676812 -0.024389984679169842 -0.022715842658560872 0.02487205323684792 0.04305930415418253 -0.0009407833320036066 -19.74573282859831 0.012866906614684738 -0.03768833153997593 0.008542986183646233 -0.03527135074403315 0.04620158851913468 0.0040053343948934 -0.0253239145256264 0.029134463890220206 24.02778760853162 0.02944608983827369 0.016999606673713846 28.851490254099527 -0.025757134143405188 -0.02664717708228667 28.894079483056064 0.01453106943545749 -0.025270820913976092 6.934319161899689 1.9021710365700146 13.767704269667318 -72.11140217549438 22.0998277900567 -13.791823648637221 -6.851079645587136 2.4973471876884057 -71.37311662237776 -20.844105047339806 4.276364207829004 -3.246588855068959 -0.518550841605714 0.0956785407794214 -8.121574534600025 0.01387534220555339 0.01075337305282521 44.538951064871306 0.024301992342038975 0.019697037581960678 44.54944689665911 12.410707988679977 0.031671710035498825 -0.0357990884728522 0.0027434082527851536 -0.019748164977538264 0.013717329237308156 0.036977027703891066 -0.002249726845773408 -0.04462596467548191 11.069245133373295 -0.012324935483597277 -0.00829854460585121 -0.0008242485550767653 0.037039191977592624 -0.04325168248963983 0.03769968725703119 0.03374561882173735 -0.018876513002295467 4.772595720717191 -0.0147546649188477 0.02483355021900028 -0.039790614932342004 -0.03514130205580731 -0.004387941710222146 0.049904197541545015 -0.01614920754232903 -0.04568831708850647 -5.615345510318739 0.0052108668640572006 0.03726242271834865 -6.722569447710646 0.01668426608508612 0.010346083471403688 -6.672368507455462 0.04589129350293202 -0.04498263667328404 0.005146392285235764 0.048403873241990816 -0.011105919890803222 8.06760045417584 3.487237473815326 -19.252529212135894 -0.0034196293123159812 10.40409243310308 0.0412277278812474 -5.605986378286107 -15.642432977874156 3.159568531041366 -0.02540017694718187 0.004200663156026133 -0.02816868310581385 -0.03942880166392264 4.717733453546595 0.005957274709540681 12.427964137674001 -8.203286839829525 6.92595319017973 -0.004983517057078649 46.42509430089697 0.019684503920388934 -4.325891195529435 -14.785598086587347 -3.864146847773336 0.006029307182475929 0.005896932141635195 0.004611174343801716 -0.032391217872069895 -10.73684239685715 -0.03243015723040723 
-0.03226315153521377 0.025157781619195865 -0.015749449327547977 0.04885632993406677 -0.014978619082293929 -0.01337454593088979 2.0846424213272483 4.631451480649495 -1.5155958864947467 -0.6140385716966688 3.8292675708075294 0.3363066223771201 -0.6685781737406488 -1.1832191602054707 1.3631103978967893 -0.4697975040932846 -0.1536930353453671 -0.334311810189581 0.054488357422667236 13.637559097553606 -1.4966732092974622 0.10739690606189049 -0.475512263405903 -5.3666002912657005 0.6858547893124978 -16.41607063803244 -0.4014459501415929 -6.61002184964887 2.5833469480728595 -15.044921771921413 73.33425100438997 13.341802090266539 15.996136148838627 5.041616504816216 -3.1006094792523493 85.91741508489666 22.30703406409379 -0.5526784357891774 -4.906655846991315 4.487559503457102 -0.14897281142507945 -1.5999299280508343 0.014379278225458564 -0.007270688060750177 -56.22358557248662 -0.04883232248465575 0.014906483324212814 -56.22975998628415 -38.79840994727542 0.02395211120917025 0.025726995872885947 0.0052719215404740845 -0.033327492441413815 0.04174520214465613 -0.008767233258120455 -0.03317399461786509 0.016585869072161873 -36.72348880570227 0.023025224147340245 0.04578543344837424 -0.0444854707371743 0.048673176113039895 -0.02562849032468872 0.020180384903711237 -0.018637731841373757 -0.018372758155426307 -19.733573849924557 0.004273824802266245 -0.03563422412658533 0.012870807187798648 -0.0180553064952178 0.00353698743408478 -0.005942387350594975 -0.020225194919427824 -0.02183501834607048 24.00714383453521 -0.024106844786675807 -0.044006368127588874 28.90420221023132 -0.04539904735696295 0.02661761068055529 28.870484596795976 0.024499550418581015 -0.01728231916942167 6.548299817703603 1.8339847131077214 13.837908157298953 -71.74818119012174 22.4294068896856 -12.696616038233683 -5.4738468906962865 3.2487300199989786 -69.37304787525227 -20.96961715455122 4.6974925642167324 -3.3484657626616823 -0.4649211383133992 0.02257159817018447 -8.100743438761205 -0.041378177171045985 -0.012126772734054412 44.59262121086019 -0.020129520323700727 0.02470768505642338 44.5257497921142 12.460044239914218 0.040839967391757236 0.0003579858911762271 -0.048271786177623816 0.0348720037337506 0.024776261702991104 -0.04453696533601279 -0.002567472211566394 -0.042405773518793925 11.132287500463567 -0.03957260613775395 -0.018905407539895103 0.029495187075159506 -0.010216904464468528 0.029584615305685718 -0.048199310285373276 0.04350436919050597 -0.024446258015215577 4.811878041432669 0.02125902948052736 -0.0006214289917519885 0.026220354115147837 -0.035467936225385854 -0.018665326522518785 0.0032828639076078045 -0.012566245199749814 -0.02850586573605694 -5.555326467297819 -0.0004271975039708004 0.022021307229306845 -6.731670761586744 0.006895655026566381 -0.008587433113940487 -6.761469381743222 -0.04517806104780016 -0.0032320429591635295 -0.04229218517770078 -0.006808496066831759 0.033727803608424554 8.043436587416185 3.450972188046735 -19.21536224554197 -0.02367642020004048 10.364307155315798 0.047212012288066235 -5.667469323981268 -15.62663417155272 3.181912396798887 0.010584774610846708 0.03294749489546579 0.022136883175765787 0.02785111727168377 4.686801493475693 0.030767982846364905 12.474355454668988 -8.21854381347808 6.907691484555523 -0.02157238138886617 46.388969006539824 -0.019306006527884195 -4.3289328808899326 -14.719338227478724 -3.801499474930692 0.03000681256005009 -0.025027735444906843 -0.013876213519175673 0.03969059645648505 -10.744535372617227 0.015012061364380653 
0.014628558567012263 0.01142551654479491 0.020040807409676203 0.005943986365138357 0.04782689517660691 0.003180592366461504 2.1398444185780496 4.684630286135753 -1.4552545811300035 -0.6306025746878571 3.8259194853703757 0.3346586140877164 -0.7234680312505559 -1.166955253945385 1.2901569453994965 -0.45711842426130567 -0.16957988463719012 -0.3497612651940173 0.14354149827998358 13.527931499383941 -1.6624084445582548 0.16180705600726825 -0.4179454365653641 -5.497524404096383 0.7429216191811757 -16.138196892311164 -0.47142116386525723 -6.076251918051642 2.4710607106257347 -15.194876750281383 72.85527390356825 14.48988435847057 13.192502835537804 4.134502060947589 -1.5868676843116072 82.90402320930592 23.42094111108871 -0.5124691260894921 -4.994738472912031 4.5583027099237645 -0.07949007470676941 -1.5948582383836125 -0.01641404216712378 -0.03719933578067457 -56.261244880068965 -0.03709186918304695 0.014579242344326263 -56.20418243815189 -38.819078799504496 -0.04795416655423731 -0.04209537405461267 -0.009183691454611431 -0.0073124205676887225 -0.0025479545186025765 0.015175640214614278 -0.036546190933320774 -0.0071828114981974354 -36.65240523113963 -0.008217331497796482 0.015083643435088554 0.0022494550618013327 0.027165187072615143 0.018543838297024336 0.04383469371313015 -0.017860801997197074 -0.007443575579297415 -19.802198868180838 0.01102040741720812 -0.032496581675648444 -0.004757698695091296 0.008571472021650255 -0.026410828277506557 0.0032382651580894974 0.009651795368225092 0.002020952999681759 24.05653953946034 -0.044351039005967374 0.043128452261316 28.846010674641597 -0.020154279482565735 -0.02890403355836221 28.881481402801892 -0.03585524653348481 -0.024015385495322065 6.163686248147637 1.7957971169685327 13.823009732338951 -71.44436162582377 22.606126550436805 -11.637974305443958 -4.139330193397798 3.757681042330788 -67.52155243147904 -21.28280303851204 5.274401841677455 -3.5305940294350036 -0.4437795900921435 0.06143744997724414 -8.15343336551351 -0.020709772632296286 -0.0036082562847450893 44.61094424577841 -0.026147689700729566 0.021438062835131423 44.60360556580784 12.413252843527246 -0.01961422349404693 -0.0052478575363670635 0.007294426930394216 -0.04998843477232646 -0.01732139645729685 -0.014935937875337086 0.005799051397950489 0.009883252956518982 11.115600141571587 0.009047735018141944 -0.026360606246434742 0.015471925692898944 -0.004272591780438934 -0.0291473000781404 0.03558116448840775 -4.990089926735551e-05 -0.0333381280841139 4.788203974761368 0.008977929610441965 0.0156245092343082 0.017001914112540914 -0.03256955317151218 0.004063410746784887 0.009678025928782774 -0.0022387414927033723 0.017634672622197804 -5.563261676818774 0.019418992372619626 0.02841286420214851 -6.684854861911091 0.0320407445841837 0.001682432168099875 -6.73870183363652 -0.008875866741406665 -0.005420169366523803 0.03141163950666691 -0.014704122948610825 0.01545409959799583 8.054642609907742 3.4542862605403277 -19.20333477858083 -0.00972450809828807 10.434952007870507 0.00678115672063115 -5.661294629292957 -15.680817655747667 3.184573410456393 0.0013996533718780716 0.010013353610443445 0.020352216195964383 -0.022647098024310402 4.66539336720333 0.006022132530624489 12.467463294791091 -8.189432746827151 6.845388536484773 -0.003048789532988874 46.402308040753304 -0.03862984627062527 -4.366942865651796 -14.769781751362476 -3.884781827292426 0.037329460117497604 -0.010331929904040834 0.04158759572356043 -0.0069411295950005504 -10.741798095679316 0.0111795913850277 
